<svg width="35" height="35" viewBox="0 0 35 35" fill="none" xmlns="http://www.w3.org/2000/svg">
<path d="M17.4999 8.60421C17.9021 8.60421 18.3003 8.68342 18.6719 8.83733C19.0434 8.99123 19.3811 9.21681 19.6654 9.50119C19.9498 9.78557 20.1754 10.1232 20.3293 10.4947C20.4832 10.8663 20.5624 11.2645 20.5624 11.6667C20.5624 12.0689 20.4832 12.4671 20.3293 12.8387C20.1754 13.2102 19.9498 13.5478 19.6654 13.8322C19.3811 14.1166 19.0434 14.3422 18.6719 14.4961C18.3003 14.65 17.9021 14.7292 17.4999 14.7292C16.6877 14.7292 15.9087 14.4066 15.3344 13.8322C14.7601 13.2579 14.4374 12.4789 14.4374 11.6667C14.4374 10.8545 14.7601 10.0755 15.3344 9.50119C15.9087 8.92686 16.6877 8.60421 17.4999 8.60421ZM17.4999 21.7292C21.8312 21.7292 26.3958 23.8584 26.3958 24.7917V26.3959H8.60409V24.7917C8.60409 23.8584 13.1687 21.7292 17.4999 21.7292ZM17.4999 5.83337C14.277 5.83337 11.6666 8.44379 11.6666 11.6667C11.6666 14.8896 14.277 17.5 17.4999 17.5C20.7228 17.5 23.3333 14.8896 23.3333 11.6667C23.3333 8.44379 20.7228 5.83337 17.4999 5.83337ZM17.4999 18.9584C13.6062 18.9584 5.83325 20.9125 5.83325 24.7917V29.1667H29.1666V24.7917C29.1666 20.9125 21.3937 18.9584 17.4999 18.9584Z" fill="black"/>
</svg>
