<svg width="35" height="35" viewBox="0 0 35 35" fill="none" xmlns="http://www.w3.org/2000/svg">
<path d="M24.7916 26.25C25.5651 26.25 26.307 26.5572 26.854 27.1042C27.401 27.6512 27.7083 28.3931 27.7083 29.1666C27.7083 29.9402 27.401 30.682 26.854 31.229C26.307 31.776 25.5651 32.0833 24.7916 32.0833C24.018 32.0833 23.2762 31.776 22.7292 31.229C22.1822 30.682 21.8749 29.9402 21.8749 29.1666C21.8749 27.5479 23.1728 26.25 24.7916 26.25ZM1.45825 2.91663H6.227L7.59784 5.83329H29.1666C29.5534 5.83329 29.9243 5.98694 30.1978 6.26043C30.4713 6.53392 30.6249 6.90485 30.6249 7.29163C30.6249 7.53954 30.552 7.78746 30.4499 8.02079L25.2291 17.4562C24.7332 18.3458 23.7708 18.9583 22.677 18.9583H11.8124L10.4999 21.3354L10.4562 21.5104C10.4562 21.6071 10.4946 21.6998 10.563 21.7682C10.6313 21.8365 10.7241 21.875 10.8208 21.875H27.7083V24.7916H10.2083C9.4347 24.7916 8.69284 24.4843 8.14586 23.9374C7.59888 23.3904 7.29158 22.6485 7.29158 21.875C7.29158 21.3645 7.42283 20.8833 7.64158 20.475L9.62492 16.902L4.37492 5.83329H1.45825V2.91663ZM10.2083 26.25C10.9818 26.25 11.7237 26.5572 12.2706 27.1042C12.8176 27.6512 13.1249 28.3931 13.1249 29.1666C13.1249 29.9402 12.8176 30.682 12.2706 31.229C11.7237 31.776 10.9818 32.0833 10.2083 32.0833C9.4347 32.0833 8.69284 31.776 8.14586 31.229C7.59888 30.682 7.29158 29.9402 7.29158 29.1666C7.29158 27.5479 8.5895 26.25 10.2083 26.25ZM23.3333 16.0416L27.3874 8.74996H8.95408L12.3958 16.0416H23.3333Z" fill="black"/>
</svg>
