<svg width="25" height="23" viewBox="0 0 25 23" fill="none" xmlns="http://www.w3.org/2000/svg">
<path d="M15.7816 12.9264H15.0122L14.7395 12.678C15.7269 11.5961 16.2696 10.2149 16.2686 8.78649C16.2686 7.60379 15.8973 6.44765 15.2017 5.46427C14.5061 4.48089 13.5174 3.71443 12.3606 3.26183C11.2038 2.80923 9.93097 2.69081 8.70296 2.92154C7.47495 3.15228 6.34695 3.7218 5.46161 4.5581C4.57626 5.3944 3.97333 6.4599 3.72906 7.61988C3.4848 8.77986 3.61016 9.98221 4.08931 11.0749C4.56846 12.1676 5.37986 13.1015 6.42092 13.7586C7.46198 14.4156 8.68593 14.7663 9.938 14.7663C11.506 14.7663 12.9475 14.2236 14.0577 13.322L14.3207 13.5796V14.3064L19.1904 18.897L20.6415 17.5263L15.7816 12.9264ZM9.938 12.9264C7.5129 12.9264 5.55529 11.0772 5.55529 8.78649C5.55529 6.49575 7.5129 4.6466 9.938 4.6466C12.3631 4.6466 14.3207 6.49575 14.3207 8.78649C14.3207 11.0772 12.3631 12.9264 9.938 12.9264Z" fill="#454444"/>
</svg>
