<svg width="100" height="90" viewBox="0 0 100 90" fill="none" xmlns="http://www.w3.org/2000/svg">
<path d="M92.6038 0.402832C81.6522 2.23599 68.9772 10.2222 56.6116 20.7935C45.6778 30.1411 35.0758 41.5668 26.687 52.8411L30.5988 56.0226C33.3701 52.2911 36.4082 48.5293 39.6237 44.8293L37.9812 43.1009L40.7089 40.4854C41.7484 41.6385 42.8521 42.7209 43.9746 43.8479C41.5618 52.0062 35.7621 60.6266 28.7477 67.5257C29.7564 68.319 30.6929 69.4229 31.2235 70.4139C38.7706 63.0817 44.9873 53.8974 47.6341 44.7247C56.8195 41.1674 61.6246 34.4269 66.4131 25.603C78.8746 23.7735 87.8982 17.0416 93.0155 10.877C94.0898 13.7786 95.1444 16.6837 95.7327 19.5247C96.5428 23.4349 96.52 27.1174 94.6879 30.7442C91.3724 37.3064 85.1033 40.4259 80.2219 43.713C77.7812 45.3564 75.5528 47.0784 74.6519 49.7604C73.7511 52.4424 74.5815 55.5641 77.0892 59.0798C79.7631 62.828 83.673 65.5529 86.3125 68.2456C87.0168 68.9641 87.6202 69.6701 88.1054 70.3632C89.6674 70.0469 91.2903 70.2883 92.6939 71.0458C92.6667 70.9673 92.6405 70.8884 92.6114 70.8108C91.8502 68.7895 90.5017 67.1213 88.9996 65.5886C85.9947 62.5233 82.283 59.8577 80.1545 56.8736C78.0004 53.8534 77.8091 52.2099 78.2254 50.9705C78.6417 49.7312 80.069 48.3752 82.3217 46.8583C86.8268 43.8245 94.0931 40.2912 98.051 32.4574C100.354 27.8983 100.339 23.1641 99.4254 18.7533C97.9274 11.8689 95.3225 6.24822 92.604 0.402832H92.6038ZM89.9226 3.17445L91.5287 6.63792C87.4296 12.3933 78.6846 19.8946 66.154 21.8305L65.2776 20.2317C73.1475 14.1187 80.9524 9.40154 87.6803 6.95502L86.6546 4.6257L89.9226 3.17445ZM60.934 20.568C61.6709 21.6609 62.4165 22.8605 63.0177 23.9626C58.4517 32.3755 54.4961 37.947 46.5642 41.0927L44.6913 39.2116C49.3799 34.2047 54.7557 28.9926 59.7719 24.6686L58.605 23.0435L60.934 20.568ZM24.0511 55.5709L22.2054 57.8602L27.0901 61.8329L28.9354 59.5431L24.0511 55.5709ZM19.8317 60.8039L0 85.4034C0.00691352 85.468 0.0377103 85.642 0.173467 85.9093C0.46572 86.4845 1.15749 87.3117 1.9714 87.9739C2.78552 88.6358 3.73539 89.1438 4.35614 89.3111C4.64483 89.3889 4.8204 89.3826 4.88492 89.3757L15.3013 76.4554C14.7115 73.9405 15.2363 71.1861 16.97 69.0361C18.7032 66.8861 21.2764 65.7967 23.8485 65.8531L24.7164 64.7768L19.8317 60.8039ZM23.6006 69.6133C22.2163 69.6246 20.8507 70.2403 19.9009 71.4187C18.2123 73.5134 18.5276 76.5297 20.6132 78.2257C22.6987 79.9216 25.7019 79.6043 27.3905 77.5096C27.489 77.3876 27.5799 77.2617 27.665 77.1336L31.339 77.8132L29.8595 85.8836L33.5676 86.5695L35.7307 74.7742L28.3584 73.4107C28.13 72.3845 27.5644 71.4243 26.6776 70.703C25.7652 69.9611 24.6773 69.6044 23.6006 69.6133ZM89.4557 74.0148C87.6979 74.0148 86.3131 75.4056 86.3131 77.171C86.3131 78.2568 86.8384 79.1999 87.6508 79.7659C87.5492 80.7006 87.3694 81.8495 87.0365 82.9327C86.3131 85.0501 85.3197 86.5435 83.372 86.1281C81.8979 85.5604 81.7454 84.0277 81.8279 82.7244L84.4752 82.6796L78.8828 74.0903C78.4847 75.5338 77.7326 81.3501 78.1254 84.6129C78.2564 85.5753 78.5478 86.659 79.2473 87.6568C79.9466 88.6546 81.1085 89.5017 82.5505 89.8249C84.7352 90.3148 86.8034 89.6566 88.1295 88.4256C89.4556 87.1947 90.1665 85.5905 90.6402 84.05C91.1423 82.4163 91.3646 80.7921 91.4656 79.6127C92.1611 79.0377 92.5984 78.1636 92.5984 77.1713C92.5984 75.4059 91.2136 74.015 89.4559 74.015L89.4557 74.0148Z" fill="#010455"/>
</svg>
