<svg width="100" height="90" viewBox="0 0 100 90" fill="none" xmlns="http://www.w3.org/2000/svg">
<path d="M50 0.402832C35.8658 0.402832 23.0736 2.9098 13.9913 6.85201C9.44805 8.82194 5.84416 11.1436 3.47186 13.5826C1.10173 15.9981 0 18.4136 0 20.8057C0 23.1977 1.10173 25.6133 3.47186 28.0288C5.84416 30.4677 9.44805 32.7894 13.9913 34.7594C23.0736 38.6992 35.8658 41.2085 50 41.2085C64.1342 41.2085 76.9264 38.6992 86.0173 34.7594C90.5411 32.7894 94.1558 30.4677 96.5368 28.0288C98.8961 25.6133 100 23.1977 100 20.8057C100 18.4136 98.8961 15.9981 96.5368 13.5826C94.1558 11.1436 90.5411 8.82194 86.0173 6.85201C76.9264 2.9098 64.1342 0.402832 50 0.402832ZM50.0216 3.57583C61.1255 3.57583 71.1905 5.11659 78.6147 7.69626C82.3377 8.9861 85.4113 10.5105 87.684 12.3866C89.9784 14.2392 91.5801 16.6079 91.5801 19.3986C91.5801 22.1893 89.9784 24.5579 87.684 26.4106C85.4113 28.2867 82.3377 29.8111 78.6147 31.1009C71.1905 33.6806 61.1255 35.2284 50.0216 35.2284C38.9178 35.2284 28.8528 33.6806 21.4286 31.1009C17.7056 29.8111 14.6255 28.2867 12.3485 26.4106C10.0736 24.5579 8.4632 22.1893 8.4632 19.3986C8.4632 16.6079 10.0736 14.2392 12.3485 12.3866C14.6255 10.5105 17.7056 8.9861 21.4286 7.69626C28.8528 5.11659 38.9178 3.57583 50.0216 3.57583ZM50.0216 7.79007C39.2424 7.79007 29.5022 9.33787 22.5974 11.7065C19.1558 12.9025 16.4286 14.3331 14.6991 15.7401C12.9654 17.1707 12.3593 18.3902 12.3593 19.3986C12.3593 20.407 12.9654 21.6265 14.6991 23.057C16.4286 24.4641 19.1558 25.8947 22.5974 27.0907C29.5022 29.4593 39.2424 31.0071 50.0216 31.0071C60.8009 31.0071 70.5411 29.4593 77.4459 27.0907C80.8874 25.8947 83.6147 24.4641 85.3463 23.057C87.0779 21.6265 87.684 20.407 87.684 19.3986C87.684 18.3902 87.0779 17.1707 85.3463 15.7401C83.6147 14.3331 80.8874 12.9025 77.4459 11.7065C70.5411 9.33787 60.8009 7.79007 50.0216 7.79007ZM0 30.2332V69.5849C0 72.6805 1.27273 75.354 3.83117 77.8868C6.38745 80.4195 10.2294 82.6709 14.9394 84.4766C24.3506 88.1116 37.1861 89.9878 50 89.9878C62.8139 89.9878 75.6494 88.1116 85.0649 84.4766C89.7619 82.6709 93.6147 80.4195 96.1688 77.8868C98.7229 75.354 100 72.6805 100 69.5849V30.2332C99.7403 30.5381 99.4805 30.8195 99.1991 31.1009C96.3203 34.0558 92.316 36.5886 87.4459 38.6758C77.7489 42.897 64.5455 45.4298 50 45.4298C35.4545 45.4298 22.2511 42.897 12.5433 38.6758C7.68398 36.5886 3.68182 34.0558 0.796537 31.1009C0.519481 30.8195 0.255411 30.5381 0 30.2332ZM15.368 50.8237L29.3074 62.1273C36.5151 58.5392 44.8485 54.1303 58.6797 54.1303C67.3377 54.1303 84.6537 60.2043 84.6537 64.9181C84.6537 69.5849 67.3377 75.6823 58.6797 75.6823C44.8485 75.6823 36.5151 71.25 29.3074 67.6619L15.368 78.9655V50.8237Z" fill="#010455"/>
</svg>
