<svg width="100" height="100" viewBox="0 0 100 100" fill="none" xmlns="http://www.w3.org/2000/svg">
<path d="M82.1861 0.428302C78.8409 0.358196 75.3039 1.76668 73.0453 2.63982L60.9214 9.19789L72.4487 11.8194L71.4259 7.56421C78.3721 3.5427 83.5711 3.82524 86.0854 5.21461C87.3638 5.92204 87.9604 6.83766 88.1096 7.74054C88.2374 8.64554 87.9604 9.69288 86.7885 10.8634L65.2468 32.3413L13.4849 63.3152C7.39948 69.4336 3.46615 77.9949 1.51652 85.3879C0.532125 89.1056 0.0505787 92.5472 0.00370253 95.1177C-0.0197355 96.4136 0.0697555 97.4971 0.225299 98.2619C0.370189 98.9629 0.619485 99.3453 0.613093 99.3453C0.591785 99.3241 0.973187 99.579 1.71255 99.7277C2.47322 99.8977 3.5599 99.9826 4.85538 99.9614C7.44849 99.9189 10.8832 99.4303 14.6163 98.4531C21.8437 96.5623 30.1749 92.7809 36.2475 87.0025L36.2262 86.9387C44.5787 84.1133 50.6086 77.5913 57.427 71.7067C48.9254 71.7067 40.2959 71.8554 31.4107 70.1771C39.3584 69.9222 45.367 69.0299 48.0091 67.819L67.4201 35.5916L89.5159 13.5742C90.6878 12.4036 91.7318 12.1381 92.648 12.274C93.5429 12.4121 94.4592 13.0048 95.1836 14.2816C96.5686 16.7905 96.8456 21.9529 92.8185 28.8997L88.557 27.8588L91.1778 39.3731L98.5502 25.8193C100.212 22.1016 100.745 16.4082 98.5289 12.4249C97.3569 10.3068 95.418 8.82824 93.2233 8.49258C92.9463 8.45009 92.648 8.42885 92.371 8.4246H91.9449C91.9662 8.00397 91.9449 7.58333 91.881 7.16907C91.5614 4.9618 90.0698 3.04771 87.9391 1.87078C86.3624 0.989147 84.4021 0.475039 82.1861 0.428302ZM24.4432 35.018C18.4772 42.4535 15.6284 49.8889 14.4629 58.2379L30.665 48.5506C26.8936 44.8541 27.0001 41.1576 24.4432 35.018ZM15.0893 73.9373C16.2889 73.9586 17.4352 74.4259 18.2854 75.2757C20.0752 77.0602 20.0752 79.9707 18.2854 81.7552C16.4871 83.5609 13.568 83.5609 11.7696 81.7552C9.97767 79.9707 9.97767 77.0602 11.7696 75.2757C12.6496 74.4047 13.8471 73.9161 15.0893 73.9373Z" fill="#010455"/>
</svg>
