<svg width="100" height="100" viewBox="0 0 100 100" fill="none" xmlns="http://www.w3.org/2000/svg">
<path d="M38.1706 0.425781C38.9931 4.44322 37.9798 8.3525 35.0742 12.0599C31.7394 16.3157 25.7824 20.2038 17.2341 22.7901C9.90533 25.0073 4.95024 28.9118 2.29894 33.4677C-0.352784 38.0237 -0.650224 43.1867 1.09571 47.6173C4.214 55.5292 13.8011 60.8069 26.6074 57.5615C29.3174 56.7119 32.3858 55.4652 34.8049 53.9585C35.308 53.6466 35.7951 53.3099 36.2644 52.9495C35.4351 52.1769 34.7671 51.2486 34.2988 50.2179C31.5541 51.9048 28.0422 53.6206 23.4589 54.2796C13.3757 56.1585 6.94671 51.762 4.7504 46.1894C3.43422 42.8501 3.61996 39.002 5.69699 35.4332C7.77403 31.8643 11.7977 28.5282 18.3771 26.5372C27.4819 23.7827 34.1633 19.5839 38.1704 14.4708C41.4876 10.2376 42.8823 5.30981 42.1473 0.425991L38.1706 0.425781ZM41.9241 32.1775C41.7584 32.1775 41.5901 32.1775 41.4243 32.1838C39.0128 32.2708 36.5799 32.9347 34.3447 34.2213C28.7865 37.4185 26.1186 43.4792 27.14 49.3667C29.7085 48.4665 31.7882 47.213 33.6412 45.9798C33.9395 43.6576 35.3093 41.5211 37.5791 40.2151C38.9121 39.4479 40.3736 39.0697 41.8122 39.0622C44.5584 39.0475 47.2116 40.3836 48.6815 42.9205C50.9214 46.786 49.5368 51.9289 45.6577 54.1614C43.8562 55.198 41.8471 55.417 39.9845 54.9672C39.0532 55.8224 37.9933 56.5911 36.8881 57.2793C35.7761 57.9723 34.5914 58.5979 33.3846 59.1597C36.5757 61.3984 40.5303 62.3396 44.3756 61.7013H44.3819L59.6065 87.9894C63.2393 94.2586 68.5528 98.0948 74.0752 99.407C79.597 100.719 85.1693 99.6502 89.694 96.8852C98.7434 91.3554 103.653 78.54 96.7472 66.6206L93.27 60.6138L93.237 60.5551C89.1109 53.0019 83.7616 47.872 77.3881 44.774C80.076 54.3991 81.0483 64.0242 80.7735 73.6497L86.8082 66.5225L87.8402 65.8936L90.0491 69.7002C94.6672 77.6711 90.8049 84.9432 85.6054 88.1206C78.0949 91.5872 72.4442 90.6399 67.8042 83.2731L52.705 57.2009C57.0635 52.5001 58.1111 45.2415 54.7622 39.4615C52.0276 34.7414 47.0555 32.1597 41.9243 32.1771L41.9241 32.1775Z" fill="#010455"/>
</svg>
